<svg xmlns="http://www.w3.org/2000/svg" width="56" height="56" viewBox="0 0 56 56" fill="none"><g clip-path="url(#clip0_555_4172)"><path d="M43.7469 40.25V8.75C43.7469 6.89348 43.0094 5.11301 41.6966 3.80025C40.3839 2.4875 38.6034 1.75 36.7469 1.75H8.04688C11.8969 1.75 13.9969 4.9 13.9969 8.75V47.25C13.9969 49.1065 14.7344 50.887 16.0471 52.1997C17.3599 53.5125 19.1404 54.25 20.9969 54.25" stroke="#101210" stroke-width="2" stroke-linecap="round" stroke-linejoin="round"></path><path d="M8.05 1.75C4.2 1.75 1.75 4.9 1.75 8.75H14M47.25 40.25H21C22.8565 40.25 24.637 40.9875 25.9497 42.3003C27.2625 43.613 28 45.3935 28 47.25C28 49.1065 27.2625 50.887 25.9497 52.1997C24.637 53.5125 22.8565 54.25 21 54.25H47.25C49.1065 54.25 50.887 53.5125 52.1997 52.1997C53.5125 50.887 54.25 49.1065 54.25 47.25C54.25 45.3935 53.5125 43.613 52.1997 42.3003C50.887 40.9875 49.1065 40.25 47.25 40.25Z" stroke="#101210" stroke-width="2" stroke-linecap="round" stroke-linejoin="round"></path><path d="M22.75 29.75H35M22.75 12.25H35H22.75ZM22.75 21H35H22.75Z" stroke="#6CCCCB" stroke-width="2" stroke-linecap="round" stroke-linejoin="round"></path></g><defs><clipPath id="clip0_555_4172"><rect width="56" height="56" fill="white"></rect></clipPath></defs></svg>