<svg xmlns="http://www.w3.org/2000/svg" width="59" height="59" viewBox="0 0 59 59" fill="none"><path d="M36.88 57.1562H49.7862V31.341H56.5906C56.6366 31.3411 56.6815 31.3274 56.7197 31.3017C56.7578 31.2761 56.7874 31.2396 56.8047 31.197C56.8219 31.1543 56.826 31.1075 56.8165 31.0626C56.8069 31.0176 56.7841 30.9765 56.751 30.9446L49.7862 24.2149V11.0625H41.4893V16.1946L29.505 4.60938L2.25803 30.9473C2.22492 30.9793 2.20212 31.0203 2.19255 31.0653C2.18298 31.1103 2.18708 31.1571 2.20433 31.1997C2.22158 31.2424 2.25118 31.2788 2.28934 31.3045C2.32749 31.3302 2.37245 31.3438 2.41844 31.3438H9.22372V57.1562H22.13" stroke="#101210" stroke-width="2" stroke-miterlimit="10" stroke-linecap="round" stroke-linejoin="round"></path><path d="M36.875 53.4688V39.6406H22.125V53.4688" stroke="#6CCCCB" stroke-width="2" stroke-miterlimit="10" stroke-linecap="round" stroke-linejoin="round"></path></svg>