<svg xmlns="http://www.w3.org/2000/svg" width="64" height="64" viewBox="0 0 64 64" fill="none"><path d="M58 43.0005C57.7904 43.8899 57.2751 44.6775 56.544 45.2258C55.8129 45.7741 54.9126 46.0483 54 46.0005H25C24.2044 46.0005 23.4413 45.6844 22.8787 45.1218C22.3161 44.5592 22 43.7961 22 43.0005L26 21.0005C26.2096 20.111 26.7249 19.3234 27.456 18.7751C28.1871 18.2268 29.0874 17.9527 30 18.0005H59C59.7956 18.0005 60.5587 18.3165 61.1213 18.8791C61.6839 19.4417 62 20.2048 62 21.0005L58 43.0005Z" stroke="#101210" stroke-width="2" stroke-miterlimit="10" stroke-linecap="round" stroke-linejoin="round"></path><path d="M10 38H14M2 22H18H2ZM6 30H16H6Z" stroke="#6CCCCB" stroke-width="2" stroke-miterlimit="10" stroke-linecap="round" stroke-linejoin="round"></path></svg>